<svg xmlns="http://www.w3.org/2000/svg" width="350.143" height="340" viewBox="0 0 350.143 340"><defs><style>.a{fill:#6bdddd;}.b{fill:#3762cc;}.c{fill:#a4c9ff;}.d{fill:#e0ebfc;}.e{fill:#3fb79f;}.f{fill:#ffea92;}.g{fill:#f9cfcf;}.h{fill:rgba(63,183,159,0.84);}.i{fill:#eaa97d;}.j{fill:#fff;}</style></defs><path class="a" d="M161.594,94.349h13.324c4.6,0,8.323,4,8.323,8.931v6.857c0,4.933-3.726,8.931-8.323,8.931H153.266V103.285a9.273,9.273,0,0,1,2.438-6.32,8.046,8.046,0,0,1,5.89-2.616Z" transform="translate(58.066 23.83)"/><path class="a" d="M0,0H21.652c4.6,0,8.323,4,8.323,8.931v6.857c0,4.933-3.726,8.931-8.323,8.931H8.323c-4.6,0-8.323-4-8.323-8.931Z" transform="translate(32.849 142.91) rotate(180)"/><path class="b" d="M175.787,123.236h-21.65a2.98,2.98,0,0,1-2.87-3.08V104.363c.009-6.63,5.015-12,11.193-12.011h13.324c6.178.01,11.184,5.382,11.193,12.011v6.857c-.007,6.63-5.012,12-11.19,12.016Zm-18.78-6.16h18.78a5.673,5.673,0,0,0,5.453-5.852v-6.857a5.673,5.673,0,0,0-5.453-5.852H162.463a5.673,5.673,0,0,0-5.453,5.852Z" transform="translate(57.196 22.752)"/><path class="b" d="M38.849,123.234H17.193C11.015,123.225,6.009,117.853,6,111.223v-6.857c.009-6.63,5.015-12,11.193-12.011H30.518c6.178.009,11.185,5.381,11.193,12.011v15.793A2.981,2.981,0,0,1,38.849,123.234ZM17.193,98.507a5.673,5.673,0,0,0-5.453,5.852v6.857a5.673,5.673,0,0,0,5.453,5.852H35.979V104.354A5.673,5.673,0,0,0,30.526,98.5Z" transform="translate(-6 22.754)"/><path class="c" d="M237.181,167.715V129.661c0-10.631-8.031-19.248-17.938-19.248H30.82c-9.907,0-17.938,8.618-17.938,19.248v38.053Z" transform="translate(-3.006 32.503)"/><path class="c" d="M194.072,77.482c-3.107-11.869-13.194-20.07-24.683-20.069H68.105c-11.491,0-21.577,8.2-24.683,20.072l-16.1,61.536H210.181Z" transform="translate(3.274 3.889)"/><path class="d" d="M175.49,78.387c-1.864-7.121-7.915-12.042-14.808-12.042H67.473c-6.893,0-12.945,4.921-14.808,12.042L38.055,134.2H190.1Z" transform="translate(7.945 8.712)"/><rect class="d" width="237.124" height="38.511" rx="4.466" transform="translate(3.46 200.218)"/><path class="e" d="M237.181,167.715V129.661c0-10.631-8.031-19.248-17.938-19.248H30.82c-9.907,0-17.938,8.618-17.938,19.248v38.053Z" transform="translate(-3.006 32.503)"/><path class="b" d="M240,190.3H15.69c-5.122-.007-9.273-4.461-9.279-9.957V155.582c.006-5.5,4.157-9.951,9.279-9.957H240c5.122.006,9.273,4.461,9.277,9.957v24.757c-.006,5.5-4.156,9.95-9.277,9.957ZM15.69,151.785a3.679,3.679,0,0,0-3.539,3.8v24.757a3.681,3.681,0,0,0,3.539,3.8H240a3.679,3.679,0,0,0,3.537-3.8V155.582a3.678,3.678,0,0,0-3.537-3.8Z" transform="translate(-5.821 51.513)"/><path class="c" d="M20.022,172.634v27.585c0,6.837,5.165,12.379,11.536,12.379H51.505c6.371,0,11.536-5.542,11.536-12.379V172.634Z" transform="translate(0.1 66.094)"/><path class="c" d="M131.964,172.634v27.585c0,6.835,5.162,12.377,11.532,12.379h19.947c6.371,0,11.536-5.542,11.536-12.379V172.634Z" transform="translate(48.799 66.094)"/><path class="b" d="M238.055,171.874H13.747a2.98,2.98,0,0,1-2.87-3.08V130.741c.017-12.327,9.328-22.314,20.815-22.328h188.42c11.485.019,20.791,10,20.808,22.328v38.053A2.981,2.981,0,0,1,238.055,171.874Zm-221.437-6.16H235.185V130.741c-.014-8.923-6.752-16.153-15.068-16.169H31.692c-8.316.015-15.054,7.245-15.068,16.169Z" transform="translate(-3.878 31.423)"/><rect class="a" width="89.671" height="20.046" rx="6.509" transform="translate(77.186 161.541)"/><path class="b" d="M52.374,216.758H32.427c-7.953-.009-14.4-6.925-14.408-15.459V173.714a2.98,2.98,0,0,1,2.87-3.08H63.913a2.98,2.98,0,0,1,2.87,3.08V201.3c-.009,8.535-6.456,15.45-14.409,15.459Zm-28.61-39.964V201.3c.006,5.134,3.883,9.294,8.668,9.3H52.378c4.783-.007,8.659-4.167,8.665-9.3V176.794Z" transform="translate(-0.771 65.015)"/><path class="b" d="M164.314,216.758H144.367c-7.952-.01-14.4-6.926-14.4-15.459V173.714a2.98,2.98,0,0,1,2.87-3.08h43.015a2.98,2.98,0,0,1,2.87,3.08V201.3c-.009,8.533-6.452,15.448-14.4,15.459ZM135.7,176.794V201.3c.006,5.132,3.88,9.291,8.662,9.3h19.947c4.784-.006,8.661-4.166,8.666-9.3V176.794Z" transform="translate(47.928 65.015)"/><path class="f" d="M26.708,119.855H54.674c5.5,0,9.963,4.787,9.963,10.691v5.345c0,5.9-4.461,10.691-9.963,10.691H34.188c-6.879,0-12.455-5.984-12.455-13.365V125.2a5.173,5.173,0,0,1,4.975-5.345Z" transform="translate(0.844 37.6)"/><path class="b" d="M55.545,150.743H35.057c-8.46-.009-15.316-7.366-15.325-16.444V126.28a8.165,8.165,0,0,1,7.853-8.426h27.96c7.085.009,12.826,6.17,12.834,13.773v5.345C68.37,144.574,62.629,150.734,55.545,150.743ZM27.579,124.014a2.2,2.2,0,0,0-2.112,2.267V134.3c.006,5.677,4.294,10.278,9.585,10.285H55.545a7.375,7.375,0,0,0,7.093-7.612V131.63a7.375,7.375,0,0,0-7.093-7.613Z" transform="translate(-0.026 36.52)"/><path class="b" d="M140.986,146.712H70c-6.744,0-12.211-5.866-12.211-13.1s5.467-13.1,12.211-13.1h70.99c6.744,0,12.211,5.866,12.211,13.1s-5.467,13.1-12.211,13.1ZM70,126.668a6.96,6.96,0,0,0,0,13.886h70.99a6.96,6.96,0,0,0,0-13.886Z" transform="translate(16.531 37.953)"/><path class="e" d="M194.072,77.482c-3.107-11.869-13.194-20.07-24.683-20.069H68.105c-11.491,0-21.577,8.2-24.683,20.072l-16.1,61.536H210.181Z" transform="translate(3.274 3.889)"/><path class="c" d="M175.49,78.387c-1.864-7.121-7.915-12.042-14.808-12.042H67.473c-6.893,0-12.945,4.921-14.808,12.042L38.055,134.2H190.1Z" transform="translate(7.945 8.712)"/><path class="b" d="M211.051,143.178H28.186a2.808,2.808,0,0,1-2.287-1.219,3.261,3.261,0,0,1-.476-2.693L41.532,77.729C45.016,64.554,56.213,55.45,68.975,55.413H170.262c12.763.036,23.96,9.14,27.444,22.316h0l16.11,61.537a3.261,3.261,0,0,1-.476,2.693,2.808,2.808,0,0,1-2.288,1.219Zm-179.077-6.16H207.255L192.179,79.4C189.4,68.873,180.454,61.6,170.262,61.572H68.975c-10.193.029-19.134,7.3-21.916,17.823Z" transform="translate(2.403 2.81)"/><path class="b" d="M190.97,138.356H38.925a2.808,2.808,0,0,1-2.288-1.219,3.261,3.261,0,0,1-.476-2.693l14.612-55.81C53,70.2,60.172,64.368,68.344,64.345h93.208c8.172.023,15.341,5.853,17.572,14.288h0l14.61,55.81a3.261,3.261,0,0,1-.476,2.693,2.808,2.808,0,0,1-2.288,1.219ZM42.712,132.2H187.182L173.6,80.3a12.722,12.722,0,0,0-12.044-9.8H68.344A12.722,12.722,0,0,0,56.3,80.3Z" transform="translate(7.075 7.632)"/><path class="d" d="M77.143,109.7a3.339,3.339,0,0,1-3.076-2.208,3.769,3.769,0,0,1,.721-3.895L97.557,79.167a3.173,3.173,0,0,1,4.711,0,3.762,3.762,0,0,1,0,5.055L79.5,108.657a3.21,3.21,0,0,1-2.355,1.047Z" transform="translate(23.501 15.069)"/><path class="d" d="M91.07,109.7a3.339,3.339,0,0,1-3.076-2.208,3.769,3.769,0,0,1,.721-3.895l22.768-24.435a3.173,3.173,0,0,1,4.711,0,3.762,3.762,0,0,1,0,5.055L93.422,108.657A3.211,3.211,0,0,1,91.07,109.7Z" transform="translate(29.56 15.069)"/><path class="f" d="M12.458,0H32.946c5.5,0,9.963,4.787,9.963,10.691v5.345c0,5.9-4.461,10.691-9.963,10.691H4.981A5.173,5.173,0,0,1,0,21.383V13.365C0,5.984,5.576,0,12.455,0Z" transform="translate(221.47 184.182) rotate(180)"/><path class="b" d="M161.751,150.742H141.265c-7.084-.008-12.826-6.169-12.834-13.771v-5.342c.007-7.6,5.748-13.764,12.834-13.773h27.959a8.164,8.164,0,0,1,7.853,8.426V134.3C177.066,143.377,170.21,150.732,161.751,150.742Zm-20.487-26.729a7.375,7.375,0,0,0-7.093,7.613v5.345a7.375,7.375,0,0,0,7.093,7.612h20.487c5.291-.006,9.579-4.607,9.585-10.285v-8.018a2.2,2.2,0,0,0-2.112-2.267Z" transform="translate(47.262 36.521)"/><path class="g" d="M278.714,199.964l-27-69.986a11.122,11.122,0,0,0-10.256-7.354h-67.3v105.7h0a77.751,77.751,0,0,0,8.05,34.556L194,286.616v11.21h71.9v-11.21l13.875-75.178A21.243,21.243,0,0,0,278.714,199.964Z" transform="translate(67.155 39.095)"/><path class="b" d="M266.766,301.986h-71.9a2.98,2.98,0,0,1-2.87-3.08V288.467l-11.459-23.06a81.316,81.316,0,0,1-8.386-36.005V123.7a2.98,2.98,0,0,1,2.87-3.08h67.3a13.949,13.949,0,0,1,12.905,9.258l27,69.989h0a24.478,24.478,0,0,1,1.218,13.243l-13.821,74.881v10.915A2.981,2.981,0,0,1,266.766,301.986Zm-69.025-6.159H263.9V287.7a3.346,3.346,0,0,1,.054-.6l13.875-75.178a17.893,17.893,0,0,0-.893-9.694l-27-69.989a8.218,8.218,0,0,0-7.606-5.453H177.9V229.407a74.79,74.79,0,0,0,7.71,33.107l11.8,23.736a3.272,3.272,0,0,1,.337,1.449Z" transform="translate(66.284 38.014)"/><path class="h" d="M264.4,231.746c-6.011,0-6.011,5.707-12.023,5.707s-6.011-5.707-12.024-5.707-6.007,5.707-12.014,5.707-6.01-5.707-12.02-5.707-6.007,5.707-12.014,5.707-6.006-5.707-12.013-5.707-6.006,5.707-12.011,5.707-6.006-5.707-12.011-5.707-6.007,5.707-12.013,5.707-6.008-5.707-12.016-5.707-6.007,5.707-12.013,5.707-6.007-5.707-12.013-5.707V25.309A5.523,5.523,0,0,1,125.53,19.6H259.077a5.523,5.523,0,0,1,5.318,5.707Z" transform="translate(43.686 -16.524)"/><path class="f" d="M163.913,40.632a1.064,1.064,0,0,1-1.333-.671l-1.3-3.442a1.063,1.063,0,0,0-1.347-.665l-9.257,3.317a1.119,1.119,0,0,0-.636.623,1.244,1.244,0,0,0-.014.924l1.6,4.124h0c3.75,5.556,4.449,10.53,4.449,16.477A27.11,27.11,0,0,1,152.786,75.9c-1.137,2.039-1.579,4.62.439,9.176a18.867,18.867,0,0,0,10.149,9.831l15.236,6.209a2.031,2.031,0,0,0,1.538,0l15.224-6.209a18.867,18.867,0,0,0,10.149-9.831c2.009-4.552,1.579-7.139.439-9.176a27.146,27.146,0,0,1-3.288-14.587c0-5.678.555-10.71,4.449-16.477h0l1.6-4.124a1.244,1.244,0,0,0-.015-.928,1.118,1.118,0,0,0-.642-.622l-9.247-3.317a1.063,1.063,0,0,0-1.348.665l-1.3,3.442a1.064,1.064,0,0,1-1.333.671l-13.452-4.606a6.075,6.075,0,0,0-3.945,0Z" transform="translate(56.62 -7.837)"/><path class="i" d="M160.43,53.391a2.88,2.88,0,0,1-2.669-1.944,3.24,3.24,0,0,1,.7-3.379,24.413,24.413,0,0,1,35.186,0,3.219,3.219,0,0,1,.892,2.978,3,3,0,0,1-2,2.28,2.736,2.736,0,0,1-2.825-.77,18.957,18.957,0,0,0-27.323,0,2.757,2.757,0,0,1-1.966.836Z" transform="translate(59.934 -5.198)"/><ellipse class="i" cx="16.635" cy="17.85" rx="16.635" ry="17.85" transform="translate(219.357 47.333)"/><path class="d" d="M174.968,53.454l2.282,4.965a1.386,1.386,0,0,0,1.036.808l5.106.8a1.409,1.409,0,0,1,1.111,1.006,1.554,1.554,0,0,1-.348,1.515l-3.7,3.865a1.547,1.547,0,0,0-.4,1.307l.872,5.457a1.529,1.529,0,0,1-.548,1.445,1.3,1.3,0,0,1-1.45.112l-4.559-2.576a1.291,1.291,0,0,0-1.28,0l-4.568,2.576a1.3,1.3,0,0,1-1.45-.112,1.529,1.529,0,0,1-.548-1.445l.872-5.457a1.547,1.547,0,0,0-.4-1.307l-3.7-3.865a1.554,1.554,0,0,1-.348-1.514,1.409,1.409,0,0,1,1.11-1.007l5.107-.8a1.386,1.386,0,0,0,1.033-.808l2.285-4.965a1.336,1.336,0,0,1,2.465,0Z" transform="translate(62.257 1.309)"/><path class="b" d="M180.242,105.432a4.737,4.737,0,0,1-1.787-.351l-15.235-6.209a21.721,21.721,0,0,1-11.723-11.4c-2.125-4.8-2.224-8.642-.31-12.077a23.447,23.447,0,0,0,2.883-12.459v-.547c0-5.616-.633-9.815-3.882-14.641a3.105,3.105,0,0,1-.346-.653l-1.6-4.122a4.534,4.534,0,0,1,.054-3.388,4.073,4.073,0,0,1,2.346-2.268L159.9,34a3.887,3.887,0,0,1,4.915,2.43l.682,1.8,11.942-4.067a8.735,8.735,0,0,1,5.687,0L195,38.234l.68-1.8a3.877,3.877,0,0,1,4.921-2.428l9.252,3.315a4.066,4.066,0,0,1,2.347,2.268,4.527,4.527,0,0,1,.05,3.389l-1.6,4.121a3.232,3.232,0,0,1-.36.673c-3.235,4.817-3.875,9.011-3.875,14.621v.186A23.712,23.712,0,0,0,209.294,75.4c1.916,3.439,1.817,7.276-.31,12.08a21.719,21.719,0,0,1-11.721,11.4l-15.226,6.206a4.756,4.756,0,0,1-1.8.351ZM155.012,44.41c3.977,6.027,4.8,11.561,4.8,17.989v.51a29.688,29.688,0,0,1-3.7,15.657c-.431.77-1.23,2.207.574,6.273a15.825,15.825,0,0,0,8.576,8.272l14.986,6.109,14.986-6.109a15.818,15.818,0,0,0,8.574-8.272c1.8-4.065,1-5.5.574-6.275a30.1,30.1,0,0,1-3.7-15.982V62.4c0-6.612.809-11.948,4.8-17.987l.735-1.894-5.843-2.094-.686,1.772a3.9,3.9,0,0,1-4.86,2.45L181.37,40.037a3.345,3.345,0,0,0-2.2,0l-13.514,4.6h0a3.9,3.9,0,0,1-4.859-2.451l-.67-1.771-5.846,2.093Zm9.773-2.7Zm29.59-1.832v.011Zm4.4-.025Zm-37.055,0ZM163.917,38.773ZM201,38.749Z" transform="translate(55.748 -8.917)"/><rect class="j" width="106.362" height="12.839" rx="4.169" transform="translate(182.809 107.089)"/><rect class="j" width="106.362" height="12.839" rx="4.169" transform="translate(182.809 135.623)"/><rect class="j" width="26.591" height="12.839" rx="4.169" transform="translate(229.131 164.155)"/><path class="b" d="M253.243,241.61a10.66,10.66,0,0,1-7.914-3.625,5.1,5.1,0,0,0-8.216,0,10.442,10.442,0,0,1-15.82,0,5.094,5.094,0,0,0-8.214,0,10.44,10.44,0,0,1-15.818,0,5.085,5.085,0,0,0-8.207,0,10.437,10.437,0,0,1-15.816,0,5.085,5.085,0,0,0-8.207,0,10.44,10.44,0,0,1-15.818,0,5.085,5.085,0,0,0-8.21,0,10.437,10.437,0,0,1-15.817,0,5.281,5.281,0,0,0-4.1-2.079,2.98,2.98,0,0,1-2.87-3.08V26.39c0-4.851,3.668-8.781,8.188-8.787H259.948c4.521,0,8.185,3.935,8.19,8.787V232.825a2.98,2.98,0,0,1-2.87,3.08,5.3,5.3,0,0,0-4.111,2.08,10.654,10.654,0,0,1-7.913,3.625ZM241.22,229.746a10.645,10.645,0,0,1,7.911,3.626,5.1,5.1,0,0,0,8.221,0,11.98,11.98,0,0,1,5.044-3.234V26.39a2.546,2.546,0,0,0-2.45-2.632H126.4a2.545,2.545,0,0,0-2.448,2.627v203.75a12.006,12.006,0,0,1,5.038,3.234,5.085,5.085,0,0,0,8.208,0,10.438,10.438,0,0,1,15.818,0,5.094,5.094,0,0,0,8.211,0,10.433,10.433,0,0,1,15.814,0,5.085,5.085,0,0,0,8.207,0,10.433,10.433,0,0,1,15.815,0,5.094,5.094,0,0,0,8.211,0,10.44,10.44,0,0,1,15.82,0,5.1,5.1,0,0,0,8.214,0,10.644,10.644,0,0,1,7.91-3.623Z" transform="translate(42.816 -17.603)"/><path class="g" d="M190.627,142.9h0c9.1,0,16.47,7.913,16.47,17.673v56.8h-32.94v-56.8c0-9.763,7.375-17.676,16.471-17.675Z" transform="translate(67.154 50.042)"/><path class="b" d="M175.027,221.534a2.98,2.98,0,0,1-2.87-3.08v-56.8c0-11.462,8.658-20.753,19.339-20.753s19.34,9.291,19.34,20.753v46.957a2.877,2.877,0,1,1-5.74,0V161.654c0-8.06-6.088-14.593-13.6-14.593s-13.6,6.534-13.6,14.593v56.8A2.98,2.98,0,0,1,175.027,221.534Z" transform="translate(66.284 48.963)"/></svg>