<svg xmlns="http://www.w3.org/2000/svg" width="30" height="30" viewBox="0 0 30 30"><defs><style>.a{fill:#fff;}</style></defs><path class="a" d="M15,0A15,15,0,1,1,0,15,15,15,0,0,1,15,0Zm3.894,5.625H11.106a5.155,5.155,0,0,0-5.476,5.194l-.006.287v7.749A5.439,5.439,0,0,0,7.213,22.9a5.429,5.429,0,0,0,3.6,1.467l.329.007h7.712A5.582,5.582,0,0,0,22.825,22.9a5.313,5.313,0,0,0,1.543-3.685l.007-.322V11.106a5.419,5.419,0,0,0-1.512-3.931,5.3,5.3,0,0,0-3.654-1.543l-.315-.007Zm-7.75,1.739h7.787a3.768,3.768,0,0,1,2.76,1.021A3.844,3.844,0,0,1,22.7,10.835l.008.271v7.787a3.694,3.694,0,0,1-1.1,2.76,3.8,3.8,0,0,1-2.48.976l-.28.007H11.144a3.907,3.907,0,0,1-2.759-.983,3.681,3.681,0,0,1-1.014-2.509l-.007-.288v-7.75a3.769,3.769,0,0,1,1.021-2.76,3.719,3.719,0,0,1,2.479-.976l.28-.007h0ZM15,10.123a4.839,4.839,0,1,0,4.839,4.839A4.848,4.848,0,0,0,15,10.123Zm0,1.739a3.1,3.1,0,1,1-3.1,3.1,3.114,3.114,0,0,1,3.1-3.1Zm5.028-2.949a1.1,1.1,0,1,0,1.1,1.1A1.1,1.1,0,0,0,20.028,8.914Z"/></svg>