<svg xmlns="http://www.w3.org/2000/svg" width="26.671" height="26.671" viewBox="0 0 26.671 26.671"><defs><style>.a{opacity:0.61;isolation:isolate;}.b{fill:#009f80;}</style></defs><g class="a" transform="translate(-71 6)"><path class="b" d="M25.889,12.554H24.16V9.988A3.29,3.29,0,0,0,20.868,6.7h-.892V2.455A2.458,2.458,0,0,0,17.52,0H5.8A2.454,2.454,0,0,0,3.348,2.455V8.369H2.455A2.455,2.455,0,0,0,1.18,12.922a2.452,2.452,0,0,0,.835,3.347,2.458,2.458,0,0,0,.838,3.35,2.449,2.449,0,0,0,.494,3.093v1.5A2.458,2.458,0,0,0,5.8,26.671H17.52a2.456,2.456,0,0,0,2.455-2.455v-.892h.893a3.3,3.3,0,0,0,3.2-2.511h1.823a.781.781,0,0,0,.781-.781v-6.7A.781.781,0,0,0,25.889,12.554ZM8.258,1.563h6.807v.892a.893.893,0,0,1-.893.892H9.151a.893.893,0,0,1-.893-.892Zm-6.7,9.262a.893.893,0,0,1,.893-.892h.892v1.785H2.455A.894.894,0,0,1,1.563,10.825ZM2.4,14.172a.894.894,0,0,1,.893-.893H5.8a.893.893,0,0,1,0,1.785H3.292a.894.894,0,0,1-.893-.892Zm.837,3.348a.893.893,0,0,1,.892-.892H5.8a.892.892,0,1,1,0,1.785H4.129a.892.892,0,0,1-.892-.892Zm.837,3.348a.893.893,0,1,1,.892.892.894.894,0,0,1-.892-.892Zm14.339,3.348a.893.893,0,0,1-.893.892H5.8a.894.894,0,0,1-.893-.892v-.894h.056a2.454,2.454,0,0,0,2.113-3.7A2.455,2.455,0,0,0,7.6,15.846,2.453,2.453,0,0,0,5.8,11.717H4.91V2.455A.893.893,0,0,1,5.8,1.563H6.7v.892A2.454,2.454,0,0,0,9.151,4.91h5.022a2.454,2.454,0,0,0,2.455-2.455V1.563h.892a.894.894,0,0,1,.893.892V6.7h-4.24a.781.781,0,0,0-.781.781,4.972,4.972,0,0,0,4.966,4.966h.056Zm6.7-4.966H23.379a.781.781,0,0,0-.781.781,1.731,1.731,0,0,1-1.729,1.729h-.892v-10.1a.781.781,0,0,0-.781-.781h-.837a3.41,3.41,0,0,1-3.313-2.622h5.824A1.728,1.728,0,0,1,22.6,9.988v3.348a.781.781,0,0,0,.781.781h1.729Z" transform="translate(71 -6)"/><path class="b" d="M184.763,417.733h-6.51c-.839,0-1.52.256-1.52.571s.68.571,1.52.571h6.51c.839,0,1.52-.256,1.52-.571S185.6,417.733,184.763,417.733Z" transform="translate(-97.911 -404.273)"/></g></svg>